<svg width="10" height="16" viewBox="0 0 10 16" fill="none" xmlns="http://www.w3.org/2000/svg">
<path fill-rule="evenodd" clip-rule="evenodd" d="M5.98825 12.6174L7.84411 10.9251L9.24167 12.1995L5.00473 16L0.758293 12.1995L2.15589 10.9251L4.01175 12.6174V9.02953C1.72368 8.61122 0 6.76894 0 4.55938C0 2.04131 2.23859 0 5 0C7.76141 0 10 2.04131 10 4.55938C10 6.76894 8.27632 8.61122 5.98825 9.02953V12.6174ZM8.10919 4.55937C8.10919 2.9935 6.71714 1.72412 4.99993 1.72412C3.28273 1.72412 1.89068 2.9935 1.89068 4.55937C1.89068 6.12525 3.28273 7.39462 4.99993 7.39462C6.71714 7.39462 8.10919 6.12525 8.10919 4.55937Z" fill="#511F74" fill-opacity="0.5"/>
</svg>
