<svg width="24" height="24" viewBox="0 0 24 24" fill="none" xmlns="http://www.w3.org/2000/svg">
<path fill-rule="evenodd" clip-rule="evenodd" d="M20.8 4.30985C20.7983 4.16006 20.7404 4.02155 20.6349 3.91767L20.0752 3.36363C19.8529 3.14379 19.4914 3.1462 19.2715 3.36605C19.1137 3.52308 18.9736 3.66481 18.8761 3.76305L20.2371 5.1095C20.3345 5.01045 20.4746 4.86872 20.6316 4.71169C20.7404 4.60378 20.8 4.46044 20.8 4.30985ZM3.19995 7.14873V18.695C3.19995 19.857 4.14214 20.8032 5.29934 20.8032H16.8045C17.9617 20.8032 18.9031 19.857 18.9031 18.695V9.0766L17.7717 10.2032V18.695C17.7717 19.2313 17.3376 19.667 16.8045 19.667H5.29934C4.76543 19.667 4.33138 19.2313 4.33138 18.695V7.14873C4.33138 6.61322 4.76543 6.17755 5.29934 6.17755H13.9393L15.0812 5.04049H5.29934C4.14214 5.04049 3.19995 5.9867 3.19995 7.14873ZM10.2147 12.391L9.72513 14.215L11.5765 13.7342L19.838 5.50175L18.4794 4.1545L10.2147 12.391Z" fill="#7817C8"/>
</svg>
