<svg width="44" height="44" viewBox="0 0 44 44" fill="none" xmlns="http://www.w3.org/2000/svg">
<path fill-rule="evenodd" clip-rule="evenodd" d="M34.3894 27.1377C33.7593 29.2632 32.5705 31.2405 30.9029 32.7423C29.3266 34.1689 27.3517 35.1468 25.2635 35.6176C22.953 36.1327 20.5106 36.1462 18.2154 35.5431C16.3965 35.0692 14.6812 34.2196 13.2093 33.0697C11.6501 31.8547 10.3634 30.3054 9.46646 28.5618C8.08676 25.8911 7.66217 22.7646 8.27115 19.8323C8.51296 18.6554 8.91652 17.511 9.46808 16.4395C11.054 13.3281 13.9137 10.8665 17.2724 9.74038C20.2534 8.72913 23.5919 8.75212 26.5519 9.81964C28.1968 10.4116 29.7019 11.3476 30.9862 12.5118C30.5567 12.9683 30.0901 13.3939 29.6477 13.8393C28.8018 14.6659 27.9591 15.4956 27.1123 16.3214C26.2745 15.5376 25.2514 14.9417 24.1418 14.6112C22.8365 14.2244 21.4301 14.1705 20.0965 14.4495C18.5397 14.7768 17.0945 15.5741 15.9833 16.6892C15.0815 17.5839 14.3957 18.6823 13.9833 19.8719C13.3888 21.56 13.3937 23.4398 13.9808 25.1294C14.5542 26.7898 15.6727 28.2662 17.1382 29.2743C18.0545 29.9083 19.1042 30.3569 20.2049 30.5724C21.287 30.7864 22.4079 30.7634 23.4924 30.582C24.5705 30.3973 25.6162 30.0082 26.526 29.4082C27.9728 28.4612 28.9943 26.9213 29.2838 25.2388C26.7824 25.2372 24.2793 25.238 21.7771 25.2388C21.7738 23.4826 21.7763 21.7264 21.7755 19.9702C26.0974 19.9694 30.4184 19.9686 34.7395 19.9702C35.1706 22.3438 35.0752 24.8188 34.3894 27.1377ZM22 0C9.8488 0 0 9.85236 0 22.0008C0 34.1516 9.8488 44 22 44C34.1496 44 44 34.1516 44 22.0008C44 9.85236 34.1496 0 22 0Z" fill="#CB78E8"/>
</svg>
