<svg width="16" height="16" viewBox="0 0 16 16" fill="none" xmlns="http://www.w3.org/2000/svg">
<g clip-path="url(#clip0)">
<path d="M15.8332 11.8394C15.8328 11.8397 15.8325 11.84 15.8322 11.8404L15.8316 11.8398L13.5459 14.1255C13.3189 14.3447 12.9572 14.3384 12.738 14.1114C12.5241 13.89 12.5241 13.5389 12.738 13.3175L14.0488 12.0067H10.8569C8.64887 12.0042 6.85953 10.2148 6.85699 8.00677C6.85511 6.42964 5.57707 5.15159 3.99994 5.14972H0.571458C0.25583 5.14972 0 4.89389 0 4.57829C0 4.2627 0.25583 4.00687 0.571424 4.00687H3.9999C6.20792 4.00938 7.99726 5.79872 7.9998 8.00677C8.00168 9.5839 9.27973 10.8619 10.8569 10.8638H14.0488L12.7385 9.55357C12.5115 9.33433 12.5052 8.97257 12.7245 8.7456C12.9437 8.5186 13.3055 8.5123 13.5324 8.73157C13.5372 8.73616 13.5419 8.74084 13.5465 8.7456L15.8321 11.0313C16.0556 11.2541 16.056 11.6159 15.8332 11.8394Z" fill="white"/>
<path d="M15.8331 4.98246C15.8328 4.9828 15.8325 4.98313 15.8321 4.98347L15.8316 4.9829L13.5459 7.26856C13.3189 7.4878 12.9572 7.4815 12.7379 7.2545C12.524 7.03305 12.524 6.682 12.7379 6.46059L14.0488 5.14977H10.8569C10.1539 5.14927 9.47548 5.40828 8.95177 5.87718C8.71469 6.0855 8.35366 6.06217 8.14534 5.82512C7.93977 5.59115 7.95942 5.23568 8.1895 5.02579C8.92267 4.36909 9.87257 4.00625 10.8569 4.00696H14.0488L12.7385 2.6967C12.5115 2.47747 12.5052 2.11574 12.7244 1.88873C12.9437 1.66173 13.3054 1.65544 13.5324 1.87467C13.5372 1.87929 13.5418 1.88395 13.5465 1.88873L15.8321 4.1744C16.0555 4.39725 16.056 4.75904 15.8331 4.98246Z" fill="white"/>
<path d="M6.66725 10.9878C5.93408 11.6445 4.98418 12.0073 3.9999 12.0066H0.571424C0.25583 12.0066 0 11.7508 0 11.4352C0 11.1196 0.25583 10.8637 0.571424 10.8637H3.9999C4.70287 10.8642 5.38127 10.6052 5.90498 10.1363C6.14206 9.92801 6.50309 9.95135 6.71141 10.1884C6.91698 10.4224 6.89733 10.7779 6.66725 10.9878Z" fill="white"/>
</g>
<defs>
<clipPath id="clip0">
<rect width="16" height="16" fill="white" transform="matrix(1 0 0 -1 0 16)"/>
</clipPath>
</defs>
</svg>
